<svg xmlns="http://www.w3.org/2000/svg" xmlns:xlink="http://www.w3.org/1999/xlink"><symbol viewBox="0 0 10 18" id="fb" xmlns="http://www.w3.org/2000/svg"><path fill-rule="evenodd" d="M6.143 18V9.789h2.791l.417-3.2H6.143V4.546c0-.926.261-1.558 1.606-1.558l1.715-.001V.126A23.232 23.232 0 0 0 6.964 0C4.491 0 2.798 1.491 2.798 4.229v2.36H0v3.2h2.798V18h3.345z"/></symbol><symbol viewBox="0 0 21 17" id="tw" xmlns="http://www.w3.org/2000/svg"><path fill-rule="evenodd" d="M20.931 2.013a8.59 8.59 0 0 1-2.466.676A4.307 4.307 0 0 0 20.353.315a8.62 8.62 0 0 1-2.727 1.04A4.286 4.286 0 0 0 14.492 0a4.294 4.294 0 0 0-4.184 5.27A12.198 12.198 0 0 1 1.456.786a4.29 4.29 0 0 0 1.33 5.73A4.279 4.279 0 0 1 .84 5.979c-.002.018-.002.036-.002.053a4.296 4.296 0 0 0 3.446 4.209 4.311 4.311 0 0 1-1.94.074 4.298 4.298 0 0 0 4.011 2.98 8.614 8.614 0 0 1-5.332 1.837c-.347 0-.688-.02-1.024-.06A12.15 12.15 0 0 0 6.583 17C14.482 17 18.8 10.462 18.8 4.789c0-.186-.004-.37-.013-.555a8.704 8.704 0 0 0 2.143-2.22"/></symbol><symbol viewBox="0 0 25 14" id="vk" xmlns="http://www.w3.org/2000/svg"><path fill-rule="evenodd" d="M11.895 13.812h1.453s.439-.048.664-.29c.206-.221.199-.638.199-.638s-.028-1.95.877-2.238c.892-.283 2.037 1.884 3.252 2.718.917.631 1.616.493 1.616.493l3.246-.045s1.699-.106.894-1.44c-.067-.11-.47-.988-2.414-2.794-2.037-1.89-1.764-1.584.688-4.851 1.494-1.992 2.091-3.208 1.904-3.728-.177-.496-1.276-.364-1.276-.364l-3.655.023S19.07.62 18.87.74c-.196.118-.322.391-.322.391s-.579 1.54-1.35 2.851c-1.628 2.764-2.28 2.91-2.545 2.739-.62-.4-.465-1.607-.465-2.465 0-2.68.406-3.796-.79-4.085C13 .077 12.706.012 11.69.003c-1.305-.013-2.408.003-3.034.31-.416.203-.736.658-.54.684.241.031.788.147 1.078.542.374.51.361 1.654.361 1.654s.217 3.153-.502 3.544c-.494.27-1.17-.28-2.62-2.788-.743-1.283-1.306-2.703-1.306-2.703S5.02.98 4.827.838C4.593.667 4.266.612 4.266.612L.792.635S.27.65.08.876c-.171.201-.014.619-.014.619s2.72 6.362 5.799 9.568c2.824 2.942 6.03 2.749 6.03 2.749"/></symbol></svg>